<svg width="64" height="64" viewBox="0 0 64 64" fill="none" xmlns="http://www.w3.org/2000/svg">
<path d="M32.133 24.546C32.191 24.631 32.37 24.903 32.426 24.997C36.74 32.226 38.557 56.771 38.557 56.771C42.563 56.913 48.328 55.687 48.328 55.687L44.611 28.71L43.241 20.054L41.683 10.227L41.06 6.747C41.06 6.747 38.625 7.892 32.256 8.033H31.913C25.545 7.891 22.973 6.76 22.973 6.76L22.356 10.154L19.283 29.125L15.567 55.966C15.567 55.966 21.608 56.914 25.615 56.772C25.615 56.772 27.43 32.229 31.747 24.999C31.803 24.905 31.98 24.633 32.039 24.548L32.133 24.546Z" stroke="#FC6828" stroke-width="1.5" stroke-miterlimit="10" stroke-linecap="round" stroke-linejoin="round"/>
<path d="M26.354 11.438L20.813 20.056" stroke="#FC6828" stroke-width="1.5" stroke-miterlimit="10" stroke-linecap="round" stroke-linejoin="round"/>
<path d="M43.241 20.055L42.332 14.32L41.673 10.156C40.496 10.698 38.948 11.1 37.524 11.306L43.241 20.055Z" stroke="#FC6828" stroke-width="1.5" stroke-miterlimit="10" stroke-linecap="round" stroke-linejoin="round"/>
<path d="M20.813 20.055L21.721 14.32L22.382 10.156C23.559 10.698 25.105 11.1 26.531 11.306L20.813 20.055Z" stroke="#FC6828" stroke-width="1.5" stroke-miterlimit="10" stroke-linecap="round" stroke-linejoin="round"/>
<path d="M30.924 21.722L32.039 24.497" stroke="#FC6828" stroke-width="1.5" stroke-miterlimit="10" stroke-linecap="round" stroke-linejoin="round"/>
<path d="M35.139 11.554C33.583 11.66 32.436 11.639 32.436 11.639H32.096C32.096 11.639 33.07 20.49 30.924 21.722L31.618 21.989C37.083 22.563 35.139 11.554 35.139 11.554Z" stroke="#FC6828" stroke-width="1.5" stroke-miterlimit="10" stroke-linecap="round" stroke-linejoin="round"/>
<path d="M22.356 10.153L22.973 6.759C22.973 6.759 25.545 7.89 31.913 8.032H32.256C38.625 7.89 41.059 6.746 41.059 6.746L41.672 10.156C40.495 10.698 38.947 11.1 37.522 11.306C34.911 11.683 32.436 11.639 32.436 11.639H32.096C32.096 11.639 25.687 11.688 22.356 10.153Z" stroke="#FC6828" stroke-width="1.5" stroke-miterlimit="10" stroke-linecap="round" stroke-linejoin="round"/>
<path d="M34.189 9.739C34.189 9.883 34.076 10.001 33.933 10.001C33.788 10.001 33.669 9.883 33.669 9.739C33.669 9.597 33.788 9.481 33.933 9.481C34.076 9.481 34.189 9.597 34.189 9.739Z" stroke="#FC6828" stroke-width="1.5" stroke-miterlimit="10" stroke-linecap="round" stroke-linejoin="round"/>
<path d="M32.087 8.547V11.195" stroke="#FC6828" stroke-width="1.5" stroke-miterlimit="10" stroke-linecap="round" stroke-linejoin="round"/>
</svg>
