<svg width="65" height="64" viewBox="0 0 65 64" fill="none" xmlns="http://www.w3.org/2000/svg">
<path d="M44.389 52.307C44.389 33.823 44.802 25.457 44.802 25.457L52.479 54.489H59.713L48.932 13.581C46.608 10.532 45.061 9.96402 45.061 9.96402L37.52 6.86502C35.362 9.71002 31.807 11.717 31.807 11.717H31.53C31.53 11.717 27.948 9.71002 25.816 6.86502L18.275 9.96402C18.275 9.96402 16.729 10.532 14.404 13.581L5.184 54.49H12.243L18.537 25.458C18.537 25.458 18.947 33.823 18.947 52.307H20.978V54.838H42.287V52.307H44.389Z" stroke="#FC6828" stroke-width="1.5" stroke-miterlimit="10" stroke-linecap="round" stroke-linejoin="round"/>
<path d="M23.247 7.92001L25.815 6.86401C27.947 9.70901 31.529 11.716 31.529 11.716H31.805C31.805 11.716 35.359 9.70901 37.517 6.86401L40.1 7.92501C37.25 11.913 31.861 15.001 31.861 15.001H31.472C31.473 15.001 25.994 12.002 23.247 7.92001Z" stroke="#FC6828" stroke-width="1.5" stroke-miterlimit="10" stroke-linecap="round" stroke-linejoin="round"/>
<path d="M11.292 54.489H6.68L6.166 56.807H10.813L11.292 54.489Z" stroke="#FC6828" stroke-width="1.5" stroke-miterlimit="10" stroke-linecap="round" stroke-linejoin="round"/>
<path d="M53.723 54.489H58.336L58.848 56.807H54.201L53.723 54.489Z" stroke="#FC6828" stroke-width="1.5" stroke-miterlimit="10" stroke-linecap="round" stroke-linejoin="round"/>
<path d="M42.287 52.307H20.978V54.837H42.287V52.307Z" stroke="#FC6828" stroke-width="1.5" stroke-miterlimit="10" stroke-linecap="round" stroke-linejoin="round"/>
</svg>
