<svg width="64" height="64" viewBox="0 0 64 64" fill="none" xmlns="http://www.w3.org/2000/svg">
<path d="M32.975 56.861C39.61 56.974 46.635 56.13 46.635 56.13C46.635 36.061 47.083 26.979 47.083 26.979L49.773 29.838L57.623 23.225L51.568 14.086C49.045 10.779 47.363 10.163 47.363 10.163L39.177 6.798C36.431 8.761 32.974 8.616 32.974 8.616H32.673C32.673 8.616 29.217 8.761 26.469 6.798L18.283 10.163C18.283 10.163 16.601 10.78 14.079 14.086L8.023 23.225L15.872 29.838L18.562 26.979C18.562 26.979 19.011 36.062 19.011 56.13C19.011 56.13 26.037 56.975 32.672 56.861H32.975Z" stroke="#FC6828" stroke-width="1.5" stroke-miterlimit="10" stroke-linecap="round" stroke-linejoin="round"/>
<path d="M49.378 11.618C49.996 12.198 50.736 12.995 51.568 14.085L57.623 23.224L49.773 29.837L47.083 26.978C46.635 16.16 49.378 11.619 49.378 11.618Z" stroke="#FC6828" stroke-width="1.5" stroke-miterlimit="10" stroke-linecap="round" stroke-linejoin="round"/>
<path d="M16.271 11.618C15.653 12.198 14.913 12.995 14.081 14.085L8.026 23.224L15.875 29.837L18.565 26.978C19.014 16.16 16.271 11.619 16.271 11.618Z" stroke="#FC6828" stroke-width="1.5" stroke-miterlimit="10" stroke-linecap="round" stroke-linejoin="round"/>
<path d="M26.471 6.797C26.471 6.797 28.114 11.902 32.675 11.791H32.975C37.537 11.902 39.18 6.797 39.18 6.797L43.03 8.379C42.768 9.327 40.716 15.754 33.026 15.752H32.625C24.933 15.755 22.882 9.32 22.623 8.378V8.379L26.471 6.797Z" stroke="#FC6828" stroke-width="1.5" stroke-miterlimit="10" stroke-linecap="round" stroke-linejoin="round"/>
<path d="M39.18 6.797C39.18 6.797 37.536 11.902 32.975 11.791H32.675C28.114 11.902 26.471 6.797 26.471 6.797C29.219 8.76 32.675 8.615 32.675 8.615H32.975C32.975 8.615 36.434 8.76 39.18 6.797Z" stroke="#FC6828" stroke-width="1.5" stroke-miterlimit="10" stroke-linecap="round" stroke-linejoin="round"/>
</svg>
