<svg width="64" height="64" viewBox="0 0 64 64" fill="none" xmlns="http://www.w3.org/2000/svg">
<path d="M32.596 20.135C32.649 20.216 32.823 20.478 32.875 20.57C37.033 27.53 38.779 55.949 38.779 55.949C42.64 56.084 45.396 55.465 45.396 55.465L43.26 28.994L41.537 9.486L41.586 7.564C41.586 7.564 38.852 8.866 32.715 9.003H32.385C26.248 8.866 23.547 7.564 23.547 7.564L23.561 9.486L21.837 28.994L19.7 55.465C19.7 55.465 22.456 56.085 26.318 55.949C26.318 55.949 28.063 27.53 32.219 20.57C32.273 20.478 32.446 20.216 32.501 20.135H32.596V20.135Z" stroke="#FC6828" stroke-width="1.5" stroke-miterlimit="10" stroke-linecap="round" stroke-linejoin="round"/>
</svg>
